<?xml version="1.0" encoding="UTF-8" standalone="no"?>
<!DOCTYPE svg PUBLIC "-//W3C//DTD SVG 1.1//EN"
 "http://www.w3.org/Graphics/SVG/1.1/DTD/svg11.dtd">
<!-- Generated by graphviz version 2.42.4 (0)
 -->
<!-- Title: ERD Pages: 1 -->
<svg width="3199pt" height="1588pt"
 viewBox="0.00 0.00 3199.00 1588.00" xmlns="http://www.w3.org/2000/svg" xmlns:xlink="http://www.w3.org/1999/xlink">
<g id="graph0" class="graph" transform="scale(1 1) rotate(0) translate(4 1584)">
<title>ERD</title>
<polygon fill="white" stroke="transparent" points="-4,4 -4,-1584 3195,-1584 3195,4 -4,4"/>
<g id="clust1" class="cluster">
<title>cluster_identity</title>
<path fill="none" stroke="#bbbbbb" d="M20,-8C20,-8 353,-8 353,-8 359,-8 365,-14 365,-20 365,-20 365,-360 365,-360 365,-366 359,-372 353,-372 353,-372 20,-372 20,-372 14,-372 8,-366 8,-360 8,-360 8,-20 8,-20 8,-14 14,-8 20,-8"/>
<text text-anchor="middle" x="186.5" y="-360" font-family="Helvetica,sans-Serif" font-size="10.00">Identity / Access</text>
</g>
<g id="clust2" class="cluster">
<title>cluster_catalog</title>
<path fill="none" stroke="#bbbbbb" d="M222.5,-965C222.5,-965 1528,-965 1528,-965 1534,-965 1540,-971 1540,-977 1540,-977 1540,-1320 1540,-1320 1540,-1326 1534,-1332 1528,-1332 1528,-1332 222.5,-1332 222.5,-1332 216.5,-1332 210.5,-1326 210.5,-1320 210.5,-1320 210.5,-977 210.5,-977 210.5,-971 216.5,-965 222.5,-965"/>
<text text-anchor="middle" x="875.25" y="-1320" font-family="Helvetica,sans-Serif" font-size="10.00">Catalog</text>
</g>
<g id="clust3" class="cluster">
<title>cluster_inventory</title>
<path fill="none" stroke="#bbbbbb" d="M1308.5,-1373C1308.5,-1373 1793,-1373 1793,-1373 1799,-1373 1805,-1379 1805,-1385 1805,-1385 1805,-1560 1805,-1560 1805,-1566 1799,-1572 1793,-1572 1793,-1572 1308.5,-1572 1308.5,-1572 1302.5,-1572 1296.5,-1566 1296.5,-1560 1296.5,-1560 1296.5,-1385 1296.5,-1385 1296.5,-1379 1302.5,-1373 1308.5,-1373"/>
<text text-anchor="middle" x="1550.75" y="-1560" font-family="Helvetica,sans-Serif" font-size="10.00">Inventory</text>
</g>
<g id="clust4" class="cluster">
<title>cluster_cart</title>
<path fill="none" stroke="#bbbbbb" d="M1649.5,-1055C1649.5,-1055 2020,-1055 2020,-1055 2026,-1055 2032,-1061 2032,-1067 2032,-1067 2032,-1242 2032,-1242 2032,-1248 2026,-1254 2020,-1254 2020,-1254 1649.5,-1254 1649.5,-1254 1643.5,-1254 1637.5,-1248 1637.5,-1242 1637.5,-1242 1637.5,-1067 1637.5,-1067 1637.5,-1061 1643.5,-1055 1649.5,-1055"/>
<text text-anchor="middle" x="1834.75" y="-1242" font-family="Helvetica,sans-Serif" font-size="10.00">Cart</text>
</g>
<g id="clust5" class="cluster">
<title>cluster_order</title>
<path fill="none" stroke="#bbbbbb" d="M1873,-661C1873,-661 2334,-661 2334,-661 2340,-661 2346,-667 2346,-673 2346,-673 2346,-1035 2346,-1035 2346,-1041 2340,-1047 2334,-1047 2334,-1047 1873,-1047 1873,-1047 1867,-1047 1861,-1041 1861,-1035 1861,-1035 1861,-673 1861,-673 1861,-667 1867,-661 1873,-661"/>
<text text-anchor="middle" x="2103.5" y="-1035" font-family="Helvetica,sans-Serif" font-size="10.00">Order</text>
</g>
<g id="clust6" class="cluster">
<title>cluster_payment</title>
<path fill="none" stroke="#bbbbbb" d="M2172.5,-290C2172.5,-290 2566.5,-290 2566.5,-290 2572.5,-290 2578.5,-296 2578.5,-302 2578.5,-302 2578.5,-499 2578.5,-499 2578.5,-505 2572.5,-511 2566.5,-511 2566.5,-511 2172.5,-511 2172.5,-511 2166.5,-511 2160.5,-505 2160.5,-499 2160.5,-499 2160.5,-302 2160.5,-302 2160.5,-296 2166.5,-290 2172.5,-290"/>
<text text-anchor="middle" x="2369.5" y="-499" font-family="Helvetica,sans-Serif" font-size="10.00">Payment</text>
</g>
<g id="clust7" class="cluster">
<title>cluster_marketing</title>
<path fill="none" stroke="#bbbbbb" d="M2414,-519C2414,-519 3171,-519 3171,-519 3177,-519 3183,-525 3183,-531 3183,-531 3183,-898 3183,-898 3183,-904 3177,-910 3171,-910 3171,-910 2414,-910 2414,-910 2408,-910 2402,-904 2402,-898 2402,-898 2402,-531 2402,-531 2402,-525 2408,-519 2414,-519"/>
<text text-anchor="middle" x="2792.5" y="-898" font-family="Helvetica,sans-Serif" font-size="10.00">Coupon / Marketing</text>
</g>
<g id="clust8" class="cluster">
<title>cluster_fulfillment</title>
<path fill="none" stroke="#bbbbbb" d="M2708.5,-1063C2708.5,-1063 3146,-1063 3146,-1063 3152,-1063 3158,-1069 3158,-1075 3158,-1075 3158,-1272 3158,-1272 3158,-1278 3152,-1284 3146,-1284 3146,-1284 2708.5,-1284 2708.5,-1284 2702.5,-1284 2696.5,-1278 2696.5,-1272 2696.5,-1272 2696.5,-1075 2696.5,-1075 2696.5,-1069 2702.5,-1063 2708.5,-1063"/>
<text text-anchor="middle" x="2927.25" y="-1272" font-family="Helvetica,sans-Serif" font-size="10.00">Fulfillment</text>
</g>
<g id="clust9" class="cluster">
<title>cluster_review</title>
<path fill="none" stroke="#bbbbbb" d="M2995,-1292C2995,-1292 3146,-1292 3146,-1292 3152,-1292 3158,-1298 3158,-1304 3158,-1304 3158,-1479 3158,-1479 3158,-1485 3152,-1491 3146,-1491 3146,-1491 2995,-1491 2995,-1491 2989,-1491 2983,-1485 2983,-1479 2983,-1479 2983,-1304 2983,-1304 2983,-1298 2989,-1292 2995,-1292"/>
<text text-anchor="middle" x="3070.5" y="-1479" font-family="Helvetica,sans-Serif" font-size="10.00">Review</text>
</g>
<!-- USERS -->
<g id="node1" class="node">
<title>USERS</title>
<polygon fill="#f7f7f7" stroke="transparent" points="17,-321 17,-344 133,-344 133,-321 17,-321"/>
<text text-anchor="start" x="21" y="-329.8" font-family="Helvetica,sans-Serif" font-weight="bold" font-size="14.00">USERS</text>
<text text-anchor="start" x="21" y="-305.8" font-family="Courier,monospace" font-size="14.00">id [PK]</text>
<text text-anchor="start" x="21" y="-282.8" font-family="Courier,monospace" font-size="14.00">email</text>
<text text-anchor="start" x="21" y="-259.8" font-family="Courier,monospace" font-size="14.00">password_hash</text>
<text text-anchor="start" x="21" y="-236.8" font-family="Courier,monospace" font-size="14.00">name</text>
<text text-anchor="start" x="21" y="-213.8" font-family="Courier,monospace" font-size="14.00">phone</text>
<text text-anchor="start" x="21" y="-190.8" font-family="Courier,monospace" font-size="14.00">status</text>
<text text-anchor="start" x="21" y="-167.8" font-family="Helvetica,sans-Serif" font-size="14.00" fill="#666666">...</text>
<polygon fill="none" stroke="black" points="16,-159 16,-345 134,-345 134,-159 16,-159"/>
</g>
<!-- USER_ROLES -->
<g id="node3" class="node">
<title>USER_ROLES</title>
<polygon fill="#f7f7f7" stroke="transparent" points="215.5,-92 215.5,-115 347.5,-115 347.5,-92 215.5,-92"/>
<text text-anchor="start" x="219.5" y="-100.8" font-family="Helvetica,sans-Serif" font-weight="bold" font-size="14.00">USER_ROLES</text>
<text text-anchor="start" x="219.5" y="-76.8" font-family="Courier,monospace" font-size="14.00">user_id [PK FK]</text>
<text text-anchor="start" x="219.5" y="-53.8" font-family="Courier,monospace" font-size="14.00">role_id [PK FK]</text>
<text text-anchor="start" x="219.5" y="-30.8" font-family="Helvetica,sans-Serif" font-size="14.00" fill="#666666">...</text>
<polygon fill="none" stroke="black" points="214.5,-22 214.5,-116 348.5,-116 348.5,-22 214.5,-22"/>
</g>
<!-- USERS&#45;&gt;USER_ROLES -->
<g id="edge10" class="edge">
<title>USERS&#45;&gt;USER_ROLES</title>
<path fill="none" stroke="#666666" stroke-width="1.1" d="M122,-158.55C122,-120.22 122,-84.67 122,-84.67 122,-84.67 207.32,-84.67 207.32,-84.67"/>
<polygon fill="#666666" stroke="#666666" stroke-width="1.1" points="207.32,-87.12 214.32,-84.67 207.32,-82.22 207.32,-87.12"/>
</g>
<!-- USER_ADDRESSES -->
<g id="node4" class="node">
<title>USER_ADDRESSES</title>
<polygon fill="#f7f7f7" stroke="transparent" points="207.5,-280 207.5,-303 356.5,-303 356.5,-280 207.5,-280"/>
<text text-anchor="start" x="211.5" y="-288.8" font-family="Helvetica,sans-Serif" font-weight="bold" font-size="14.00">USER_ADDRESSES</text>
<text text-anchor="start" x="211.5" y="-264.8" font-family="Courier,monospace" font-size="14.00">id [PK]</text>
<text text-anchor="start" x="211.5" y="-241.8" font-family="Courier,monospace" font-size="14.00">user_id [FK]</text>
<text text-anchor="start" x="211.5" y="-218.8" font-family="Courier,monospace" font-size="14.00">label</text>
<text text-anchor="start" x="211.5" y="-195.8" font-family="Courier,monospace" font-size="14.00">recipient_name</text>
<text text-anchor="start" x="211.5" y="-172.8" font-family="Courier,monospace" font-size="14.00">recipient_phone</text>
<text text-anchor="start" x="211.5" y="-149.8" font-family="Helvetica,sans-Serif" font-size="14.00" fill="#666666">...</text>
<polygon fill="none" stroke="black" points="206,-141.5 206,-304.5 357,-304.5 357,-141.5 206,-141.5"/>
</g>
<!-- USERS&#45;&gt;USER_ADDRESSES -->
<g id="edge9" class="edge">
<title>USERS&#45;&gt;USER_ADDRESSES</title>
<path fill="none" stroke="#666666" stroke-width="1.1" d="M134.17,-231.75C134.17,-231.75 198.72,-231.75 198.72,-231.75"/>
<polygon fill="#666666" stroke="#666666" stroke-width="1.1" points="198.72,-234.2 205.72,-231.75 198.72,-229.3 198.72,-234.2"/>
</g>
<!-- CATEGORIES -->
<g id="node5" class="node">
<title>CATEGORIES</title>
<polygon fill="#eef6ff" stroke="transparent" points="219.5,-1188 219.5,-1211 343.5,-1211 343.5,-1188 219.5,-1188"/>
<text text-anchor="start" x="223.5" y="-1196.8" font-family="Helvetica,sans-Serif" font-weight="bold" font-size="14.00">CATEGORIES</text>
<text text-anchor="start" x="223.5" y="-1172.8" font-family="Courier,monospace" font-size="14.00">id [PK]</text>
<text text-anchor="start" x="223.5" y="-1149.8" font-family="Courier,monospace" font-size="14.00">parent_id [FK]</text>
<text text-anchor="start" x="223.5" y="-1126.8" font-family="Courier,monospace" font-size="14.00">name</text>
<text text-anchor="start" x="223.5" y="-1103.8" font-family="Courier,monospace" font-size="14.00">slug</text>
<text text-anchor="start" x="223.5" y="-1080.8" font-family="Courier,monospace" font-size="14.00">depth</text>
<text text-anchor="start" x="223.5" y="-1057.8" font-family="Helvetica,sans-Serif" font-size="14.00" fill="#666666">...</text>
<polygon fill="none" stroke="black" points="218.5,-1049.5 218.5,-1212.5 344.5,-1212.5 344.5,-1049.5 218.5,-1049.5"/>
</g>
<!-- USERS&#45;&gt;CATEGORIES -->
<!-- CARTS -->
<g id="node14" class="node">
<title>CARTS</title>
<polygon fill="#f6f0ff" stroke="transparent" points="1646.5,-1179 1646.5,-1202 1754.5,-1202 1754.5,-1179 1646.5,-1179"/>
<text text-anchor="start" x="1650.5" y="-1187.8" font-family="Helvetica,sans-Serif" font-weight="bold" font-size="14.00">CARTS</text>
<text text-anchor="start" x="1650.5" y="-1163.8" font-family="Courier,monospace" font-size="14.00">id [PK]</text>
<text text-anchor="start" x="1650.5" y="-1140.8" font-family="Courier,monospace" font-size="14.00">user_id [FK]</text>
<text text-anchor="start" x="1650.5" y="-1117.8" font-family="Courier,monospace" font-size="14.00">status</text>
<text text-anchor="start" x="1650.5" y="-1094.8" font-family="Courier,monospace" font-size="14.00">created_at</text>
<text text-anchor="start" x="1650.5" y="-1071.8" font-family="Helvetica,sans-Serif" font-size="14.00" fill="#666666">...</text>
<polygon fill="none" stroke="black" points="1645.5,-1063 1645.5,-1203 1755.5,-1203 1755.5,-1063 1645.5,-1063"/>
</g>
<!-- USERS&#45;&gt;CARTS -->
<g id="edge21" class="edge">
<title>USERS&#45;&gt;CARTS</title>
<path fill="none" stroke="#666666" stroke-width="1.1" d="M134.31,-324.75C426.75,-324.75 1701,-324.75 1701,-324.75 1701,-324.75 1701,-1055.69 1701,-1055.69"/>
<polygon fill="#666666" stroke="#666666" stroke-width="1.1" points="1698.55,-1055.69 1701,-1062.69 1703.45,-1055.69 1698.55,-1055.69"/>
</g>
<!-- ORDERS -->
<g id="node16" class="node">
<title>ORDERS</title>
<polygon fill="#eafbf3" stroke="transparent" points="1870,-831 1870,-854 2044,-854 2044,-831 1870,-831"/>
<text text-anchor="start" x="1874" y="-839.8" font-family="Helvetica,sans-Serif" font-weight="bold" font-size="14.00">ORDERS</text>
<text text-anchor="start" x="1874" y="-815.8" font-family="Courier,monospace" font-size="14.00">id [PK]</text>
<text text-anchor="start" x="1874" y="-792.8" font-family="Courier,monospace" font-size="14.00">user_id [FK]</text>
<text text-anchor="start" x="1874" y="-769.8" font-family="Courier,monospace" font-size="14.00">order_number</text>
<text text-anchor="start" x="1874" y="-746.8" font-family="Courier,monospace" font-size="14.00">status</text>
<text text-anchor="start" x="1874" y="-723.8" font-family="Courier,monospace" font-size="14.00">total_product_amount</text>
<text text-anchor="start" x="1874" y="-700.8" font-family="Courier,monospace" font-size="14.00">discount_amount</text>
<text text-anchor="start" x="1874" y="-677.8" font-family="Helvetica,sans-Serif" font-size="14.00" fill="#666666">...</text>
<polygon fill="none" stroke="black" points="1869,-669 1869,-855 2045,-855 2045,-669 1869,-669"/>
</g>
<!-- USERS&#45;&gt;ORDERS -->
<g id="edge24" class="edge">
<title>USERS&#45;&gt;ORDERS</title>
<path fill="none" stroke="#666666" stroke-width="1.1" d="M134.07,-314.62C448.67,-314.62 1913,-314.62 1913,-314.62 1913,-314.62 1913,-661.76 1913,-661.76"/>
<polygon fill="#666666" stroke="#666666" stroke-width="1.1" points="1910.55,-661.76 1913,-668.76 1915.45,-661.76 1910.55,-661.76"/>
</g>
<!-- USER_COUPONS -->
<g id="node24" class="node">
<title>USER_COUPONS</title>
<polygon fill="#fffbea" stroke="transparent" points="2704.5,-666 2704.5,-689 2839.5,-689 2839.5,-666 2704.5,-666"/>
<text text-anchor="start" x="2708.5" y="-674.8" font-family="Helvetica,sans-Serif" font-weight="bold" font-size="14.00">USER_COUPONS</text>
<text text-anchor="start" x="2708.5" y="-650.8" font-family="Courier,monospace" font-size="14.00">id [PK]</text>
<text text-anchor="start" x="2708.5" y="-627.8" font-family="Courier,monospace" font-size="14.00">coupon_id [FK]</text>
<text text-anchor="start" x="2708.5" y="-604.8" font-family="Courier,monospace" font-size="14.00">user_id [FK]</text>
<text text-anchor="start" x="2708.5" y="-581.8" font-family="Courier,monospace" font-size="14.00">status</text>
<text text-anchor="start" x="2708.5" y="-558.8" font-family="Courier,monospace" font-size="14.00">issued_at</text>
<text text-anchor="start" x="2708.5" y="-535.8" font-family="Helvetica,sans-Serif" font-size="14.00" fill="#666666">...</text>
<polygon fill="none" stroke="black" points="2703,-527.5 2703,-690.5 2840,-690.5 2840,-527.5 2703,-527.5"/>
</g>
<!-- USERS&#45;&gt;USER_COUPONS -->
<g id="edge35" class="edge">
<title>USERS&#45;&gt;USER_COUPONS</title>
<path fill="none" stroke="#666666" stroke-width="1.1" d="M95,-345.36C95,-439.29 95,-570.33 95,-570.33 95,-570.33 2695.99,-570.33 2695.99,-570.33"/>
<polygon fill="#666666" stroke="#666666" stroke-width="1.1" points="2695.99,-572.78 2702.99,-570.33 2695.99,-567.88 2695.99,-572.78"/>
</g>
<!-- REVIEWS -->
<g id="node28" class="node">
<title>REVIEWS</title>
<polygon fill="#f8f2ea" stroke="transparent" points="2992.5,-1439 2992.5,-1462 3149.5,-1462 3149.5,-1439 2992.5,-1439"/>
<text text-anchor="start" x="2996.5" y="-1447.8" font-family="Helvetica,sans-Serif" font-weight="bold" font-size="14.00">REVIEWS</text>
<text text-anchor="start" x="2996.5" y="-1423.8" font-family="Courier,monospace" font-size="14.00">id [PK]</text>
<text text-anchor="start" x="2996.5" y="-1400.8" font-family="Courier,monospace" font-size="14.00">user_id [FK]</text>
<text text-anchor="start" x="2996.5" y="-1377.8" font-family="Courier,monospace" font-size="14.00">product_id [FK]</text>
<text text-anchor="start" x="2996.5" y="-1354.8" font-family="Courier,monospace" font-size="14.00">order_item_id [FK]</text>
<text text-anchor="start" x="2996.5" y="-1331.8" font-family="Courier,monospace" font-size="14.00">rating</text>
<text text-anchor="start" x="2996.5" y="-1308.8" font-family="Helvetica,sans-Serif" font-size="14.00" fill="#666666">...</text>
<polygon fill="none" stroke="black" points="2991,-1300.5 2991,-1463.5 3150,-1463.5 3150,-1300.5 2991,-1300.5"/>
</g>
<!-- USERS&#45;&gt;REVIEWS -->
<g id="edge41" class="edge">
<title>USERS&#45;&gt;REVIEWS</title>
<path fill="none" stroke="#666666" stroke-width="1.1" d="M56,-345.07C56,-612.83 56,-1366.1 56,-1366.1 56,-1366.1 2983.65,-1366.1 2983.65,-1366.1"/>
<polygon fill="#666666" stroke="#666666" stroke-width="1.1" points="2983.65,-1368.55 2990.65,-1366.1 2983.65,-1363.65 2983.65,-1368.55"/>
</g>
<!-- ROLES -->
<g id="node2" class="node">
<title>ROLES</title>
<polygon fill="#f7f7f7" stroke="transparent" points="42,-109 42,-132 108,-132 108,-109 42,-109"/>
<text text-anchor="start" x="46" y="-117.8" font-family="Helvetica,sans-Serif" font-weight="bold" font-size="14.00">ROLES</text>
<text text-anchor="start" x="46" y="-93.8" font-family="Courier,monospace" font-size="14.00">id [PK]</text>
<text text-anchor="start" x="46" y="-70.8" font-family="Courier,monospace" font-size="14.00">code</text>
<text text-anchor="start" x="46" y="-47.8" font-family="Courier,monospace" font-size="14.00">name</text>
<text text-anchor="start" x="46" y="-24.8" font-family="Helvetica,sans-Serif" font-size="14.00" fill="#666666">...</text>
<polygon fill="none" stroke="black" points="41,-16.5 41,-133.5 109,-133.5 109,-16.5 41,-16.5"/>
</g>
<!-- ROLES&#45;&gt;USER_ROLES -->
<g id="edge11" class="edge">
<title>ROLES&#45;&gt;USER_ROLES</title>
<path fill="none" stroke="#666666" stroke-width="1.1" d="M109.1,-53.33C109.1,-53.33 207.34,-53.33 207.34,-53.33"/>
<polygon fill="#666666" stroke="#666666" stroke-width="1.1" points="207.34,-55.78 214.34,-53.33 207.34,-50.88 207.34,-55.78"/>
</g>
<!-- PRODUCTS -->
<g id="node6" class="node">
<title>PRODUCTS</title>
<polygon fill="#eef6ff" stroke="transparent" points="430.5,-1239 430.5,-1262 571.5,-1262 571.5,-1239 430.5,-1239"/>
<text text-anchor="start" x="434.5" y="-1247.8" font-family="Helvetica,sans-Serif" font-weight="bold" font-size="14.00">PRODUCTS</text>
<text text-anchor="start" x="434.5" y="-1223.8" font-family="Courier,monospace" font-size="14.00">id [PK]</text>
<text text-anchor="start" x="434.5" y="-1200.8" font-family="Courier,monospace" font-size="14.00">category_id [FK]</text>
<text text-anchor="start" x="434.5" y="-1177.8" font-family="Courier,monospace" font-size="14.00">name</text>
<text text-anchor="start" x="434.5" y="-1154.8" font-family="Courier,monospace" font-size="14.00">description</text>
<text text-anchor="start" x="434.5" y="-1131.8" font-family="Courier,monospace" font-size="14.00">status</text>
<text text-anchor="start" x="434.5" y="-1108.8" font-family="Courier,monospace" font-size="14.00">list_price</text>
<text text-anchor="start" x="434.5" y="-1085.8" font-family="Helvetica,sans-Serif" font-size="14.00" fill="#666666">...</text>
<polygon fill="none" stroke="black" points="429,-1077 429,-1263 572,-1263 572,-1077 429,-1077"/>
</g>
<!-- CATEGORIES&#45;&gt;PRODUCTS -->
<g id="edge12" class="edge">
<title>CATEGORIES&#45;&gt;PRODUCTS</title>
<path fill="none" stroke="#666666" stroke-width="1.1" d="M344.55,-1144.75C344.55,-1144.75 421.65,-1144.75 421.65,-1144.75"/>
<polygon fill="#666666" stroke="#666666" stroke-width="1.1" points="421.65,-1147.2 428.65,-1144.75 421.65,-1142.3 421.65,-1147.2"/>
</g>
<!-- INVENTORIES -->
<g id="node12" class="node">
<title>INVENTORIES</title>
<polygon fill="#fff5e8" stroke="transparent" points="1306,-1520 1306,-1543 1463,-1543 1463,-1520 1306,-1520"/>
<text text-anchor="start" x="1310" y="-1528.8" font-family="Helvetica,sans-Serif" font-weight="bold" font-size="14.00">INVENTORIES</text>
<text text-anchor="start" x="1310" y="-1504.8" font-family="Courier,monospace" font-size="14.00">id [PK]</text>
<text text-anchor="start" x="1310" y="-1481.8" font-family="Courier,monospace" font-size="14.00">variant_id [FK]</text>
<text text-anchor="start" x="1310" y="-1458.8" font-family="Courier,monospace" font-size="14.00">available_quantity</text>
<text text-anchor="start" x="1310" y="-1435.8" font-family="Courier,monospace" font-size="14.00">reserved_quantity</text>
<text text-anchor="start" x="1310" y="-1412.8" font-family="Courier,monospace" font-size="14.00">safety_stock</text>
<text text-anchor="start" x="1310" y="-1389.8" font-family="Helvetica,sans-Serif" font-size="14.00" fill="#666666">...</text>
<polygon fill="none" stroke="black" points="1304.5,-1381.5 1304.5,-1544.5 1463.5,-1544.5 1463.5,-1381.5 1304.5,-1381.5"/>
</g>
<!-- CATEGORIES&#45;&gt;INVENTORIES -->
<!-- COUPON_CATEGORY_TARGETS -->
<g id="node23" class="node">
<title>COUPON_CATEGORY_TARGETS</title>
<polygon fill="#fffbea" stroke="transparent" points="2650.5,-762 2650.5,-785 2893.5,-785 2893.5,-762 2650.5,-762"/>
<text text-anchor="start" x="2654.5" y="-770.8" font-family="Helvetica,sans-Serif" font-weight="bold" font-size="14.00">COUPON_CATEGORY_TARGETS</text>
<text text-anchor="start" x="2654.5" y="-746.8" font-family="Courier,monospace" font-size="14.00">coupon_id [PK FK]</text>
<text text-anchor="start" x="2654.5" y="-723.8" font-family="Courier,monospace" font-size="14.00">category_id [PK FK]</text>
<polygon fill="none" stroke="black" points="2649,-715.5 2649,-786.5 2894,-786.5 2894,-715.5 2649,-715.5"/>
</g>
<!-- CATEGORIES&#45;&gt;COUPON_CATEGORY_TARGETS -->
<g id="edge33" class="edge">
<title>CATEGORIES&#45;&gt;COUPON_CATEGORY_TARGETS</title>
<path fill="none" stroke="#666666" stroke-width="1.1" d="M303,-1049.23C303,-903.31 303,-613.17 303,-613.17 303,-613.17 2676,-613.17 2676,-613.17 2676,-613.17 2676,-708.15 2676,-708.15"/>
<polygon fill="#666666" stroke="#666666" stroke-width="1.1" points="2673.55,-708.15 2676,-715.15 2678.45,-708.15 2673.55,-708.15"/>
</g>
<!-- PRODUCT_IMAGES -->
<g id="node7" class="node">
<title>PRODUCT_IMAGES</title>
<polygon fill="#eef6ff" stroke="transparent" points="681.5,-1089 681.5,-1112 833.5,-1112 833.5,-1089 681.5,-1089"/>
<text text-anchor="start" x="685.5" y="-1097.8" font-family="Helvetica,sans-Serif" font-weight="bold" font-size="14.00">PRODUCT_IMAGES</text>
<text text-anchor="start" x="685.5" y="-1073.8" font-family="Courier,monospace" font-size="14.00">id [PK]</text>
<text text-anchor="start" x="685.5" y="-1050.8" font-family="Courier,monospace" font-size="14.00">product_id [FK]</text>
<text text-anchor="start" x="685.5" y="-1027.8" font-family="Courier,monospace" font-size="14.00">image_url</text>
<text text-anchor="start" x="685.5" y="-1004.8" font-family="Courier,monospace" font-size="14.00">image_type</text>
<text text-anchor="start" x="685.5" y="-981.8" font-family="Helvetica,sans-Serif" font-size="14.00" fill="#666666">...</text>
<polygon fill="none" stroke="black" points="680.5,-973 680.5,-1113 834.5,-1113 834.5,-973 680.5,-973"/>
</g>
<!-- PRODUCTS&#45;&gt;PRODUCT_IMAGES -->
<g id="edge13" class="edge">
<title>PRODUCTS&#45;&gt;PRODUCT_IMAGES</title>
<path fill="none" stroke="#666666" stroke-width="1.1" d="M572.09,-1095C572.09,-1095 673.45,-1095 673.45,-1095"/>
<polygon fill="#666666" stroke="#666666" stroke-width="1.1" points="673.45,-1097.45 680.45,-1095 673.45,-1092.55 673.45,-1097.45"/>
</g>
<!-- PRODUCT_OPTION_GROUPS -->
<g id="node8" class="node">
<title>PRODUCT_OPTION_GROUPS</title>
<polygon fill="#eef6ff" stroke="transparent" points="645.5,-1254 645.5,-1277 870.5,-1277 870.5,-1254 645.5,-1254"/>
<text text-anchor="start" x="649.5" y="-1262.8" font-family="Helvetica,sans-Serif" font-weight="bold" font-size="14.00">PRODUCT_OPTION_GROUPS</text>
<text text-anchor="start" x="649.5" y="-1238.8" font-family="Courier,monospace" font-size="14.00">id [PK]</text>
<text text-anchor="start" x="649.5" y="-1215.8" font-family="Courier,monospace" font-size="14.00">product_id [FK]</text>
<text text-anchor="start" x="649.5" y="-1192.8" font-family="Courier,monospace" font-size="14.00">name</text>
<text text-anchor="start" x="649.5" y="-1169.8" font-family="Courier,monospace" font-size="14.00">display_order</text>
<text text-anchor="start" x="649.5" y="-1146.8" font-family="Helvetica,sans-Serif" font-size="14.00" fill="#666666">...</text>
<polygon fill="none" stroke="black" points="644,-1138 644,-1278 871,-1278 871,-1138 644,-1138"/>
</g>
<!-- PRODUCTS&#45;&gt;PRODUCT_OPTION_GROUPS -->
<g id="edge14" class="edge">
<title>PRODUCTS&#45;&gt;PRODUCT_OPTION_GROUPS</title>
<path fill="none" stroke="#666666" stroke-width="1.1" d="M572.09,-1200.5C572.09,-1200.5 636.92,-1200.5 636.92,-1200.5"/>
<polygon fill="#666666" stroke="#666666" stroke-width="1.1" points="636.92,-1202.95 643.92,-1200.5 636.92,-1198.05 636.92,-1202.95"/>
</g>
<!-- PRODUCT_VARIANTS -->
<g id="node10" class="node">
<title>PRODUCT_VARIANTS</title>
<polygon fill="#eef6ff" stroke="transparent" points="969.5,-1280 969.5,-1303 1138.5,-1303 1138.5,-1280 969.5,-1280"/>
<text text-anchor="start" x="973.5" y="-1288.8" font-family="Helvetica,sans-Serif" font-weight="bold" font-size="14.00">PRODUCT_VARIANTS</text>
<text text-anchor="start" x="973.5" y="-1264.8" font-family="Courier,monospace" font-size="14.00">id [PK]</text>
<text text-anchor="start" x="973.5" y="-1241.8" font-family="Courier,monospace" font-size="14.00">product_id [FK]</text>
<text text-anchor="start" x="973.5" y="-1218.8" font-family="Courier,monospace" font-size="14.00">sku</text>
<text text-anchor="start" x="973.5" y="-1195.8" font-family="Courier,monospace" font-size="14.00">status</text>
<text text-anchor="start" x="973.5" y="-1172.8" font-family="Courier,monospace" font-size="14.00">additional_price</text>
<text text-anchor="start" x="973.5" y="-1149.8" font-family="Helvetica,sans-Serif" font-size="14.00" fill="#666666">...</text>
<polygon fill="none" stroke="black" points="968,-1141.5 968,-1304.5 1139,-1304.5 1139,-1141.5 968,-1141.5"/>
</g>
<!-- PRODUCTS&#45;&gt;PRODUCT_VARIANTS -->
<g id="edge16" class="edge">
<title>PRODUCTS&#45;&gt;PRODUCT_VARIANTS</title>
<path fill="none" stroke="#666666" stroke-width="1.1" d="M572.01,-1127.25C721.64,-1127.25 1054,-1127.25 1054,-1127.25 1054,-1127.25 1054,-1134.38 1054,-1134.38"/>
<polygon fill="#666666" stroke="#666666" stroke-width="1.1" points="1051.55,-1134.38 1054,-1141.38 1056.45,-1134.38 1051.55,-1134.38"/>
</g>
<!-- COUPON_PRODUCT_TARGETS -->
<g id="node22" class="node">
<title>COUPON_PRODUCT_TARGETS</title>
<polygon fill="#fffbea" stroke="transparent" points="2653.5,-858 2653.5,-881 2889.5,-881 2889.5,-858 2653.5,-858"/>
<text text-anchor="start" x="2657.5" y="-866.8" font-family="Helvetica,sans-Serif" font-weight="bold" font-size="14.00">COUPON_PRODUCT_TARGETS</text>
<text text-anchor="start" x="2657.5" y="-842.8" font-family="Courier,monospace" font-size="14.00">coupon_id [PK FK]</text>
<text text-anchor="start" x="2657.5" y="-819.8" font-family="Courier,monospace" font-size="14.00">product_id [PK FK]</text>
<polygon fill="none" stroke="black" points="2652.5,-811.5 2652.5,-882.5 2890.5,-882.5 2890.5,-811.5 2652.5,-811.5"/>
</g>
<!-- PRODUCTS&#45;&gt;COUPON_PRODUCT_TARGETS -->
<g id="edge31" class="edge">
<title>PRODUCTS&#45;&gt;COUPON_PRODUCT_TARGETS</title>
<path fill="none" stroke="#666666" stroke-width="1.1" d="M525,-1263.23C525,-1293.71 525,-1319.9 525,-1319.9 525,-1319.9 2679,-1319.9 2679,-1319.9 2679,-1319.9 2679,-889.54 2679,-889.54"/>
<polygon fill="#666666" stroke="#666666" stroke-width="1.1" points="2681.45,-889.54 2679,-882.54 2676.55,-889.54 2681.45,-889.54"/>
</g>
<!-- PRODUCTS&#45;&gt;REVIEWS -->
<g id="edge42" class="edge">
<title>PRODUCTS&#45;&gt;REVIEWS</title>
<path fill="none" stroke="#666666" stroke-width="1.1" d="M477,-1263.26C477,-1307.45 477,-1350.7 477,-1350.7 477,-1350.7 2983.75,-1350.7 2983.75,-1350.7"/>
<polygon fill="#666666" stroke="#666666" stroke-width="1.1" points="2983.75,-1353.15 2990.75,-1350.7 2983.75,-1348.25 2983.75,-1353.15"/>
</g>
<!-- PRODUCT_OPTION_VALUES -->
<g id="node9" class="node">
<title>PRODUCT_OPTION_VALUES</title>
<polygon fill="#eef6ff" stroke="transparent" points="944.5,-1092 944.5,-1115 1163.5,-1115 1163.5,-1092 944.5,-1092"/>
<text text-anchor="start" x="948.5" y="-1100.8" font-family="Helvetica,sans-Serif" font-weight="bold" font-size="14.00">PRODUCT_OPTION_VALUES</text>
<text text-anchor="start" x="948.5" y="-1076.8" font-family="Courier,monospace" font-size="14.00">id [PK]</text>
<text text-anchor="start" x="948.5" y="-1053.8" font-family="Courier,monospace" font-size="14.00">option_group_id [FK]</text>
<text text-anchor="start" x="948.5" y="-1030.8" font-family="Courier,monospace" font-size="14.00">value</text>
<text text-anchor="start" x="948.5" y="-1007.8" font-family="Helvetica,sans-Serif" font-size="14.00" fill="#666666">...</text>
<polygon fill="none" stroke="black" points="943,-999.5 943,-1116.5 1164,-1116.5 1164,-999.5 943,-999.5"/>
</g>
<!-- PRODUCT_OPTION_GROUPS&#45;&gt;PRODUCT_OPTION_VALUES -->
<g id="edge15" class="edge">
<title>PRODUCT_OPTION_GROUPS&#45;&gt;PRODUCT_OPTION_VALUES</title>
<path fill="none" stroke="#666666" stroke-width="1.1" d="M853,-1137.9C853,-1098.14 853,-1056.25 853,-1056.25 853,-1056.25 935.99,-1056.25 935.99,-1056.25"/>
<polygon fill="#666666" stroke="#666666" stroke-width="1.1" points="935.99,-1058.7 942.99,-1056.25 935.99,-1053.8 935.99,-1058.7"/>
</g>
<!-- PRODUCT_VARIANT_OPTION_VALUES -->
<g id="node11" class="node">
<title>PRODUCT_VARIANT_OPTION_VALUES</title>
<polygon fill="#eef6ff" stroke="transparent" points="1237,-1123 1237,-1146 1531,-1146 1531,-1123 1237,-1123"/>
<text text-anchor="start" x="1241" y="-1131.8" font-family="Helvetica,sans-Serif" font-weight="bold" font-size="14.00">PRODUCT_VARIANT_OPTION_VALUES</text>
<text text-anchor="start" x="1241" y="-1107.8" font-family="Courier,monospace" font-size="14.00">variant_id [PK FK]</text>
<text text-anchor="start" x="1241" y="-1084.8" font-family="Courier,monospace" font-size="14.00">option_value_id [PK FK]</text>
<polygon fill="none" stroke="black" points="1236,-1076.5 1236,-1147.5 1532,-1147.5 1532,-1076.5 1236,-1076.5"/>
</g>
<!-- PRODUCT_OPTION_VALUES&#45;&gt;PRODUCT_VARIANT_OPTION_VALUES -->
<g id="edge18" class="edge">
<title>PRODUCT_OPTION_VALUES&#45;&gt;PRODUCT_VARIANT_OPTION_VALUES</title>
<path fill="none" stroke="#666666" stroke-width="1.1" d="M1164.01,-1096.5C1164.01,-1096.5 1228.97,-1096.5 1228.97,-1096.5"/>
<polygon fill="#666666" stroke="#666666" stroke-width="1.1" points="1228.97,-1098.95 1235.97,-1096.5 1228.97,-1094.05 1228.97,-1098.95"/>
</g>
<!-- PRODUCT_VARIANTS&#45;&gt;PRODUCT_VARIANT_OPTION_VALUES -->
<g id="edge17" class="edge">
<title>PRODUCT_VARIANTS&#45;&gt;PRODUCT_VARIANT_OPTION_VALUES</title>
<path fill="none" stroke="#666666" stroke-width="1.1" d="M1139.15,-1184.5C1200.01,-1184.5 1271,-1184.5 1271,-1184.5 1271,-1184.5 1271,-1154.83 1271,-1154.83"/>
<polygon fill="#666666" stroke="#666666" stroke-width="1.1" points="1273.45,-1154.83 1271,-1147.83 1268.55,-1154.83 1273.45,-1154.83"/>
</g>
<!-- PRODUCT_VARIANTS&#45;&gt;INVENTORIES -->
<g id="edge19" class="edge">
<title>PRODUCT_VARIANTS&#45;&gt;INVENTORIES</title>
<path fill="none" stroke="#666666" stroke-width="1.1" d="M1139.13,-1278.75C1229.19,-1278.75 1358,-1278.75 1358,-1278.75 1358,-1278.75 1358,-1374.38 1358,-1374.38"/>
<polygon fill="#666666" stroke="#666666" stroke-width="1.1" points="1355.55,-1374.38 1358,-1381.38 1360.45,-1374.38 1355.55,-1374.38"/>
</g>
<!-- CART_ITEMS -->
<g id="node15" class="node">
<title>CART_ITEMS</title>
<polygon fill="#f6f0ff" stroke="transparent" points="1891,-1202 1891,-1225 2023,-1225 2023,-1202 1891,-1202"/>
<text text-anchor="start" x="1895" y="-1210.8" font-family="Helvetica,sans-Serif" font-weight="bold" font-size="14.00">CART_ITEMS</text>
<text text-anchor="start" x="1895" y="-1186.8" font-family="Courier,monospace" font-size="14.00">id [PK]</text>
<text text-anchor="start" x="1895" y="-1163.8" font-family="Courier,monospace" font-size="14.00">cart_id [FK]</text>
<text text-anchor="start" x="1895" y="-1140.8" font-family="Courier,monospace" font-size="14.00">product_id [FK]</text>
<text text-anchor="start" x="1895" y="-1117.8" font-family="Courier,monospace" font-size="14.00">variant_id [FK]</text>
<text text-anchor="start" x="1895" y="-1094.8" font-family="Courier,monospace" font-size="14.00">quantity</text>
<text text-anchor="start" x="1895" y="-1071.8" font-family="Helvetica,sans-Serif" font-size="14.00" fill="#666666">...</text>
<polygon fill="none" stroke="black" points="1890,-1063.5 1890,-1226.5 2024,-1226.5 2024,-1063.5 1890,-1063.5"/>
</g>
<!-- PRODUCT_VARIANTS&#45;&gt;CART_ITEMS -->
<g id="edge23" class="edge">
<title>PRODUCT_VARIANTS&#45;&gt;CART_ITEMS</title>
<path fill="none" stroke="#666666" stroke-width="1.1" d="M1139.31,-1214.75C1139.31,-1214.75 1882.96,-1214.75 1882.96,-1214.75"/>
<polygon fill="#666666" stroke="#666666" stroke-width="1.1" points="1882.96,-1217.2 1889.96,-1214.75 1882.96,-1212.3 1882.96,-1217.2"/>
</g>
<!-- ORDER_ITEMS -->
<g id="node17" class="node">
<title>ORDER_ITEMS</title>
<polygon fill="#eafbf3" stroke="transparent" points="2136.5,-996 2136.5,-1019 2318.5,-1019 2318.5,-996 2136.5,-996"/>
<text text-anchor="start" x="2140.5" y="-1004.8" font-family="Helvetica,sans-Serif" font-weight="bold" font-size="14.00">ORDER_ITEMS</text>
<text text-anchor="start" x="2140.5" y="-980.8" font-family="Courier,monospace" font-size="14.00">id [PK]</text>
<text text-anchor="start" x="2140.5" y="-957.8" font-family="Courier,monospace" font-size="14.00">order_id [FK]</text>
<text text-anchor="start" x="2140.5" y="-934.8" font-family="Courier,monospace" font-size="14.00">product_id [FK]</text>
<text text-anchor="start" x="2140.5" y="-911.8" font-family="Courier,monospace" font-size="14.00">variant_id [FK]</text>
<text text-anchor="start" x="2140.5" y="-888.8" font-family="Courier,monospace" font-size="14.00">product_name_snapshot</text>
<text text-anchor="start" x="2140.5" y="-865.8" font-family="Courier,monospace" font-size="14.00">sku_snapshot</text>
<text text-anchor="start" x="2140.5" y="-842.8" font-family="Helvetica,sans-Serif" font-size="14.00" fill="#666666">...</text>
<polygon fill="none" stroke="black" points="2135.5,-834 2135.5,-1020 2319.5,-1020 2319.5,-834 2135.5,-834"/>
</g>
<!-- PRODUCT_VARIANTS&#45;&gt;ORDER_ITEMS -->
<g id="edge26" class="edge">
<title>PRODUCT_VARIANTS&#45;&gt;ORDER_ITEMS</title>
<path fill="none" stroke="#666666" stroke-width="1.1" d="M1139.45,-1241.75C1405.38,-1241.75 2197,-1241.75 2197,-1241.75 2197,-1241.75 2197,-1027.16 2197,-1027.16"/>
<polygon fill="#666666" stroke="#666666" stroke-width="1.1" points="2199.45,-1027.16 2197,-1020.16 2194.55,-1027.16 2199.45,-1027.16"/>
</g>
<!-- INVENTORY_HISTORIES -->
<g id="node13" class="node">
<title>INVENTORY_HISTORIES</title>
<polygon fill="#fff5e8" stroke="transparent" points="1605.5,-1520 1605.5,-1543 1796.5,-1543 1796.5,-1520 1605.5,-1520"/>
<text text-anchor="start" x="1609.5" y="-1528.8" font-family="Helvetica,sans-Serif" font-weight="bold" font-size="14.00">INVENTORY_HISTORIES</text>
<text text-anchor="start" x="1609.5" y="-1504.8" font-family="Courier,monospace" font-size="14.00">id [PK]</text>
<text text-anchor="start" x="1609.5" y="-1481.8" font-family="Courier,monospace" font-size="14.00">inventory_id [FK]</text>
<text text-anchor="start" x="1609.5" y="-1458.8" font-family="Courier,monospace" font-size="14.00">change_type</text>
<text text-anchor="start" x="1609.5" y="-1435.8" font-family="Courier,monospace" font-size="14.00">delta_quantity</text>
<text text-anchor="start" x="1609.5" y="-1412.8" font-family="Courier,monospace" font-size="14.00">before_quantity</text>
<text text-anchor="start" x="1609.5" y="-1389.8" font-family="Helvetica,sans-Serif" font-size="14.00" fill="#666666">...</text>
<polygon fill="none" stroke="black" points="1604,-1381.5 1604,-1544.5 1797,-1544.5 1797,-1381.5 1604,-1381.5"/>
</g>
<!-- INVENTORIES&#45;&gt;INVENTORY_HISTORIES -->
<g id="edge20" class="edge">
<title>INVENTORIES&#45;&gt;INVENTORY_HISTORIES</title>
<path fill="none" stroke="#666666" stroke-width="1.1" d="M1463.87,-1463C1463.87,-1463 1596.71,-1463 1596.71,-1463"/>
<polygon fill="#666666" stroke="#666666" stroke-width="1.1" points="1596.71,-1465.45 1603.71,-1463 1596.71,-1460.55 1596.71,-1465.45"/>
</g>
<!-- INVENTORIES&#45;&gt;CARTS -->
<!-- CARTS&#45;&gt;CART_ITEMS -->
<g id="edge22" class="edge">
<title>CARTS&#45;&gt;CART_ITEMS</title>
<path fill="none" stroke="#666666" stroke-width="1.1" d="M1755.53,-1156.5C1755.53,-1156.5 1882.75,-1156.5 1882.75,-1156.5"/>
<polygon fill="#666666" stroke="#666666" stroke-width="1.1" points="1882.75,-1158.95 1889.75,-1156.5 1882.75,-1154.05 1882.75,-1158.95"/>
</g>
<!-- CARTS&#45;&gt;ORDERS -->
<!-- ORDERS&#45;&gt;ORDER_ITEMS -->
<g id="edge25" class="edge">
<title>ORDERS&#45;&gt;ORDER_ITEMS</title>
<path fill="none" stroke="#666666" stroke-width="1.1" d="M2045.2,-844.5C2045.2,-844.5 2128.24,-844.5 2128.24,-844.5"/>
<polygon fill="#666666" stroke="#666666" stroke-width="1.1" points="2128.24,-846.95 2135.24,-844.5 2128.24,-842.05 2128.24,-846.95"/>
</g>
<!-- ORDER_STATUS_HISTORIES -->
<g id="node18" class="node">
<title>ORDER_STATUS_HISTORIES</title>
<polygon fill="#eafbf3" stroke="transparent" points="2118.5,-785 2118.5,-808 2337.5,-808 2337.5,-785 2118.5,-785"/>
<text text-anchor="start" x="2122.5" y="-793.8" font-family="Helvetica,sans-Serif" font-weight="bold" font-size="14.00">ORDER_STATUS_HISTORIES</text>
<text text-anchor="start" x="2122.5" y="-769.8" font-family="Courier,monospace" font-size="14.00">id [PK]</text>
<text text-anchor="start" x="2122.5" y="-746.8" font-family="Courier,monospace" font-size="14.00">order_id [FK]</text>
<text text-anchor="start" x="2122.5" y="-723.8" font-family="Courier,monospace" font-size="14.00">from_status</text>
<text text-anchor="start" x="2122.5" y="-700.8" font-family="Courier,monospace" font-size="14.00">to_status</text>
<text text-anchor="start" x="2122.5" y="-677.8" font-family="Helvetica,sans-Serif" font-size="14.00" fill="#666666">...</text>
<polygon fill="none" stroke="black" points="2117,-669 2117,-809 2338,-809 2338,-669 2117,-669"/>
</g>
<!-- ORDERS&#45;&gt;ORDER_STATUS_HISTORIES -->
<g id="edge27" class="edge">
<title>ORDERS&#45;&gt;ORDER_STATUS_HISTORIES</title>
<path fill="none" stroke="#666666" stroke-width="1.1" d="M2045.2,-739C2045.2,-739 2109.69,-739 2109.69,-739"/>
<polygon fill="#666666" stroke="#666666" stroke-width="1.1" points="2109.69,-741.45 2116.69,-739 2109.69,-736.55 2109.69,-741.45"/>
</g>
<!-- PAYMENTS -->
<g id="node19" class="node">
<title>PAYMENTS</title>
<polygon fill="#fff0f0" stroke="transparent" points="2169.5,-460 2169.5,-483 2285.5,-483 2285.5,-460 2169.5,-460"/>
<text text-anchor="start" x="2173.5" y="-468.8" font-family="Helvetica,sans-Serif" font-weight="bold" font-size="14.00">PAYMENTS</text>
<text text-anchor="start" x="2173.5" y="-444.8" font-family="Courier,monospace" font-size="14.00">id [PK]</text>
<text text-anchor="start" x="2173.5" y="-421.8" font-family="Courier,monospace" font-size="14.00">order_id [FK]</text>
<text text-anchor="start" x="2173.5" y="-398.8" font-family="Courier,monospace" font-size="14.00">provider</text>
<text text-anchor="start" x="2173.5" y="-375.8" font-family="Courier,monospace" font-size="14.00">method</text>
<text text-anchor="start" x="2173.5" y="-352.8" font-family="Courier,monospace" font-size="14.00">status</text>
<text text-anchor="start" x="2173.5" y="-329.8" font-family="Courier,monospace" font-size="14.00">payment_key</text>
<text text-anchor="start" x="2173.5" y="-306.8" font-family="Helvetica,sans-Serif" font-size="14.00" fill="#666666">...</text>
<polygon fill="none" stroke="black" points="2168.5,-298 2168.5,-484 2286.5,-484 2286.5,-298 2168.5,-298"/>
</g>
<!-- ORDERS&#45;&gt;PAYMENTS -->
<!-- ORDERS&#45;&gt;PAYMENTS -->
<g id="edge28" class="edge">
<title>ORDERS&#45;&gt;PAYMENTS</title>
<path fill="none" stroke="#666666" stroke-width="1.1" d="M2001,-668.62C2001,-572.81 2001,-437.67 2001,-437.67 2001,-437.67 2161.29,-437.67 2161.29,-437.67"/>
<polygon fill="#666666" stroke="#666666" stroke-width="1.1" points="2161.29,-440.12 2168.29,-437.67 2161.29,-435.22 2161.29,-440.12"/>
</g>
<!-- ORDER_COUPON_USAGES -->
<g id="node25" class="node">
<title>ORDER_COUPON_USAGES</title>
<polygon fill="#fffbea" stroke="transparent" points="2967.5,-762 2967.5,-785 3174.5,-785 3174.5,-762 2967.5,-762"/>
<text text-anchor="start" x="2971.5" y="-770.8" font-family="Helvetica,sans-Serif" font-weight="bold" font-size="14.00">ORDER_COUPON_USAGES</text>
<text text-anchor="start" x="2971.5" y="-746.8" font-family="Courier,monospace" font-size="14.00">id [PK]</text>
<text text-anchor="start" x="2971.5" y="-723.8" font-family="Courier,monospace" font-size="14.00">order_id [FK]</text>
<text text-anchor="start" x="2971.5" y="-700.8" font-family="Courier,monospace" font-size="14.00">user_coupon_id [FK]</text>
<text text-anchor="start" x="2971.5" y="-677.8" font-family="Courier,monospace" font-size="14.00">coupon_code_snapshot</text>
<text text-anchor="start" x="2971.5" y="-654.8" font-family="Courier,monospace" font-size="14.00">coupon_name_snapshot</text>
<text text-anchor="start" x="2971.5" y="-631.8" font-family="Helvetica,sans-Serif" font-size="14.00" fill="#666666">...</text>
<polygon fill="none" stroke="black" points="2966,-623.5 2966,-786.5 3175,-786.5 3175,-623.5 2966,-623.5"/>
</g>
<!-- ORDERS&#45;&gt;ORDER_COUPON_USAGES -->
<g id="edge36" class="edge">
<title>ORDERS&#45;&gt;ORDER_COUPON_USAGES</title>
<path fill="none" stroke="#666666" stroke-width="1.1" d="M2038,-855.07C2038,-936.38 2038,-1041.5 2038,-1041.5 2038,-1041.5 2979,-1041.5 2979,-1041.5 2979,-1041.5 2979,-793.89 2979,-793.89"/>
<polygon fill="#666666" stroke="#666666" stroke-width="1.1" points="2981.45,-793.89 2979,-786.89 2976.55,-793.89 2981.45,-793.89"/>
</g>
<!-- SHIPMENTS -->
<g id="node26" class="node">
<title>SHIPMENTS</title>
<polygon fill="#eaf7f7" stroke="transparent" points="2705.5,-1233 2705.5,-1256 2837.5,-1256 2837.5,-1233 2705.5,-1233"/>
<text text-anchor="start" x="2709.5" y="-1241.8" font-family="Helvetica,sans-Serif" font-weight="bold" font-size="14.00">SHIPMENTS</text>
<text text-anchor="start" x="2709.5" y="-1217.8" font-family="Courier,monospace" font-size="14.00">id [PK]</text>
<text text-anchor="start" x="2709.5" y="-1194.8" font-family="Courier,monospace" font-size="14.00">order_id [FK]</text>
<text text-anchor="start" x="2709.5" y="-1171.8" font-family="Courier,monospace" font-size="14.00">status</text>
<text text-anchor="start" x="2709.5" y="-1148.8" font-family="Courier,monospace" font-size="14.00">carrier</text>
<text text-anchor="start" x="2709.5" y="-1125.8" font-family="Courier,monospace" font-size="14.00">tracking_number</text>
<text text-anchor="start" x="2709.5" y="-1102.8" font-family="Courier,monospace" font-size="14.00">recipient_name</text>
<text text-anchor="start" x="2709.5" y="-1079.8" font-family="Helvetica,sans-Serif" font-size="14.00" fill="#666666">...</text>
<polygon fill="none" stroke="black" points="2704.5,-1071 2704.5,-1257 2838.5,-1257 2838.5,-1071 2704.5,-1071"/>
</g>
<!-- ORDERS&#45;&gt;SHIPMENTS -->
<g id="edge38" class="edge">
<title>ORDERS&#45;&gt;SHIPMENTS</title>
<path fill="none" stroke="#666666" stroke-width="1.1" d="M2031,-855.13C2031,-976.84 2031,-1174.67 2031,-1174.67 2031,-1174.67 2697.48,-1174.67 2697.48,-1174.67"/>
<polygon fill="#666666" stroke="#666666" stroke-width="1.1" points="2697.48,-1177.12 2704.48,-1174.67 2697.48,-1172.22 2697.48,-1177.12"/>
</g>
<!-- SHIPMENT_ITEMS -->
<g id="node27" class="node">
<title>SHIPMENT_ITEMS</title>
<polygon fill="#eaf7f7" stroke="transparent" points="2992.5,-1198 2992.5,-1221 3149.5,-1221 3149.5,-1198 2992.5,-1198"/>
<text text-anchor="start" x="2996.5" y="-1206.8" font-family="Helvetica,sans-Serif" font-weight="bold" font-size="14.00">SHIPMENT_ITEMS</text>
<text text-anchor="start" x="2996.5" y="-1182.8" font-family="Courier,monospace" font-size="14.00">id [PK]</text>
<text text-anchor="start" x="2996.5" y="-1159.8" font-family="Courier,monospace" font-size="14.00">shipment_id [FK]</text>
<text text-anchor="start" x="2996.5" y="-1136.8" font-family="Courier,monospace" font-size="14.00">order_item_id [FK]</text>
<text text-anchor="start" x="2996.5" y="-1113.8" font-family="Helvetica,sans-Serif" font-size="14.00" fill="#666666">...</text>
<polygon fill="none" stroke="black" points="2991,-1105.5 2991,-1222.5 3150,-1222.5 3150,-1105.5 2991,-1105.5"/>
</g>
<!-- ORDER_ITEMS&#45;&gt;SHIPMENT_ITEMS -->
<g id="edge40" class="edge">
<title>ORDER_ITEMS&#45;&gt;SHIPMENT_ITEMS</title>
<path fill="none" stroke="#666666" stroke-width="1.1" d="M2319.78,-951.25C2538.65,-951.25 3071,-951.25 3071,-951.25 3071,-951.25 3071,-1098.3 3071,-1098.3"/>
<polygon fill="#666666" stroke="#666666" stroke-width="1.1" points="3068.55,-1098.3 3071,-1105.3 3073.45,-1098.3 3068.55,-1098.3"/>
</g>
<!-- ORDER_ITEMS&#45;&gt;REVIEWS -->
<g id="edge43" class="edge">
<title>ORDER_ITEMS&#45;&gt;REVIEWS</title>
<path fill="none" stroke="#666666" stroke-width="1.1" d="M2259,-1020.16C2259,-1140.67 2259,-1335.3 2259,-1335.3 2259,-1335.3 2983.84,-1335.3 2983.84,-1335.3"/>
<polygon fill="#666666" stroke="#666666" stroke-width="1.1" points="2983.84,-1337.75 2990.84,-1335.3 2983.84,-1332.85 2983.84,-1337.75"/>
</g>
<!-- PAYMENT_EVENTS -->
<g id="node20" class="node">
<title>PAYMENT_EVENTS</title>
<polygon fill="#fff0f0" stroke="transparent" points="2417.5,-437 2417.5,-460 2569.5,-460 2569.5,-437 2417.5,-437"/>
<text text-anchor="start" x="2421.5" y="-445.8" font-family="Helvetica,sans-Serif" font-weight="bold" font-size="14.00">PAYMENT_EVENTS</text>
<text text-anchor="start" x="2421.5" y="-421.8" font-family="Courier,monospace" font-size="14.00">id [PK]</text>
<text text-anchor="start" x="2421.5" y="-398.8" font-family="Courier,monospace" font-size="14.00">payment_id [FK]</text>
<text text-anchor="start" x="2421.5" y="-375.8" font-family="Courier,monospace" font-size="14.00">event_type</text>
<text text-anchor="start" x="2421.5" y="-352.8" font-family="Courier,monospace" font-size="14.00">provider_event_id</text>
<text text-anchor="start" x="2421.5" y="-329.8" font-family="Helvetica,sans-Serif" font-size="14.00" fill="#666666">...</text>
<polygon fill="none" stroke="black" points="2416.5,-321 2416.5,-461 2570.5,-461 2570.5,-321 2416.5,-321"/>
</g>
<!-- PAYMENTS&#45;&gt;PAYMENT_EVENTS -->
<g id="edge29" class="edge">
<title>PAYMENTS&#45;&gt;PAYMENT_EVENTS</title>
<path fill="none" stroke="#666666" stroke-width="1.1" d="M2286.53,-391C2286.53,-391 2409.44,-391 2409.44,-391"/>
<polygon fill="#666666" stroke="#666666" stroke-width="1.1" points="2409.44,-393.45 2416.44,-391 2409.44,-388.55 2409.44,-393.45"/>
</g>
<!-- COUPONS -->
<g id="node21" class="node">
<title>COUPONS</title>
<polygon fill="#fffbea" stroke="transparent" points="2411.5,-818 2411.5,-841 2576.5,-841 2576.5,-818 2411.5,-818"/>
<text text-anchor="start" x="2415.5" y="-826.8" font-family="Helvetica,sans-Serif" font-weight="bold" font-size="14.00">COUPONS</text>
<text text-anchor="start" x="2415.5" y="-802.8" font-family="Courier,monospace" font-size="14.00">id [PK]</text>
<text text-anchor="start" x="2415.5" y="-779.8" font-family="Courier,monospace" font-size="14.00">code</text>
<text text-anchor="start" x="2415.5" y="-756.8" font-family="Courier,monospace" font-size="14.00">name</text>
<text text-anchor="start" x="2415.5" y="-733.8" font-family="Courier,monospace" font-size="14.00">coupon_type</text>
<text text-anchor="start" x="2415.5" y="-710.8" font-family="Courier,monospace" font-size="14.00">discount_value</text>
<text text-anchor="start" x="2415.5" y="-687.8" font-family="Courier,monospace" font-size="14.00">max_discount_amount</text>
<text text-anchor="start" x="2415.5" y="-664.8" font-family="Helvetica,sans-Serif" font-size="14.00" fill="#666666">...</text>
<polygon fill="none" stroke="black" points="2410,-656 2410,-842 2577,-842 2577,-656 2410,-656"/>
</g>
<!-- PAYMENTS&#45;&gt;COUPONS -->
<!-- COUPONS&#45;&gt;COUPON_PRODUCT_TARGETS -->
<g id="edge30" class="edge">
<title>COUPONS&#45;&gt;COUPON_PRODUCT_TARGETS</title>
<path fill="none" stroke="#666666" stroke-width="1.1" d="M2577.29,-826.75C2577.29,-826.75 2645.47,-826.75 2645.47,-826.75"/>
<polygon fill="#666666" stroke="#666666" stroke-width="1.1" points="2645.47,-829.2 2652.47,-826.75 2645.47,-824.3 2645.47,-829.2"/>
</g>
<!-- COUPONS&#45;&gt;COUPON_CATEGORY_TARGETS -->
<g id="edge32" class="edge">
<title>COUPONS&#45;&gt;COUPON_CATEGORY_TARGETS</title>
<path fill="none" stroke="#666666" stroke-width="1.1" d="M2577.29,-751C2577.29,-751 2641.87,-751 2641.87,-751"/>
<polygon fill="#666666" stroke="#666666" stroke-width="1.1" points="2641.87,-753.45 2648.87,-751 2641.87,-748.55 2641.87,-753.45"/>
</g>
<!-- COUPONS&#45;&gt;USER_COUPONS -->
<g id="edge34" class="edge">
<title>COUPONS&#45;&gt;USER_COUPONS</title>
<path fill="none" stroke="#666666" stroke-width="1.1" d="M2577.29,-673.25C2577.29,-673.25 2695.83,-673.25 2695.83,-673.25"/>
<polygon fill="#666666" stroke="#666666" stroke-width="1.1" points="2695.83,-675.7 2702.83,-673.25 2695.83,-670.8 2695.83,-675.7"/>
</g>
<!-- COUPONS&#45;&gt;SHIPMENTS -->
<!-- USER_COUPONS&#45;&gt;ORDER_COUPON_USAGES -->
<g id="edge37" class="edge">
<title>USER_COUPONS&#45;&gt;ORDER_COUPON_USAGES</title>
<path fill="none" stroke="#666666" stroke-width="1.1" d="M2840.1,-657C2840.1,-657 2958.86,-657 2958.86,-657"/>
<polygon fill="#666666" stroke="#666666" stroke-width="1.1" points="2958.86,-659.45 2965.86,-657 2958.86,-654.55 2958.86,-659.45"/>
</g>
<!-- SHIPMENTS&#45;&gt;SHIPMENT_ITEMS -->
<g id="edge39" class="edge">
<title>SHIPMENTS&#45;&gt;SHIPMENT_ITEMS</title>
<path fill="none" stroke="#666666" stroke-width="1.1" d="M2838.6,-1164C2838.6,-1164 2983.89,-1164 2983.89,-1164"/>
<polygon fill="#666666" stroke="#666666" stroke-width="1.1" points="2983.89,-1166.45 2990.89,-1164 2983.89,-1161.55 2983.89,-1166.45"/>
</g>
<!-- SHIPMENTS&#45;&gt;REVIEWS -->
</g>
</svg>
