<?xml version="1.0" encoding="UTF-8" standalone="no"?>
<!DOCTYPE svg PUBLIC "-//W3C//DTD SVG 1.1//EN"
 "http://www.w3.org/Graphics/SVG/1.1/DTD/svg11.dtd">
<!-- Generated by graphviz version 2.42.4 (0)
 -->
<!-- Title: CORE_ERD Pages: 1 -->
<svg width="1821pt" height="1087pt"
 viewBox="0.00 0.00 1821.00 1087.00" xmlns="http://www.w3.org/2000/svg" xmlns:xlink="http://www.w3.org/1999/xlink">
<g id="graph0" class="graph" transform="scale(1 1) rotate(0) translate(4 1083)">
<title>CORE_ERD</title>
<polygon fill="white" stroke="transparent" points="-4,4 -4,-1083 1817,-1083 1817,4 -4,4"/>
<g id="clust1" class="cluster">
<title>cluster_account</title>
<path fill="none" stroke="#bbbbbb" d="M20,-918C20,-918 328,-918 328,-918 334,-918 340,-924 340,-930 340,-930 340,-1059 340,-1059 340,-1065 334,-1071 328,-1071 328,-1071 20,-1071 20,-1071 14,-1071 8,-1065 8,-1059 8,-1059 8,-930 8,-930 8,-924 14,-918 20,-918"/>
<text text-anchor="middle" x="174" y="-1059" font-family="Helvetica,sans-Serif" font-size="10.00">Account</text>
</g>
<g id="clust2" class="cluster">
<title>cluster_catalog</title>
<path fill="none" stroke="#bbbbbb" d="M197.5,-735C197.5,-735 1021,-735 1021,-735 1027,-735 1033,-741 1033,-747 1033,-747 1033,-898 1033,-898 1033,-904 1027,-910 1021,-910 1021,-910 197.5,-910 197.5,-910 191.5,-910 185.5,-904 185.5,-898 185.5,-898 185.5,-747 185.5,-747 185.5,-741 191.5,-735 197.5,-735"/>
<text text-anchor="middle" x="609.25" y="-898" font-family="Helvetica,sans-Serif" font-size="10.00">Catalog / Inventory</text>
</g>
<g id="clust3" class="cluster">
<title>cluster_checkout</title>
<path fill="none" stroke="#bbbbbb" d="M653.5,-8C653.5,-8 1793,-8 1793,-8 1799,-8 1805,-14 1805,-20 1805,-20 1805,-664 1805,-664 1805,-670 1799,-676 1793,-676 1793,-676 653.5,-676 653.5,-676 647.5,-676 641.5,-670 641.5,-664 641.5,-664 641.5,-20 641.5,-20 641.5,-14 647.5,-8 653.5,-8"/>
<text text-anchor="middle" x="1223.25" y="-664" font-family="Helvetica,sans-Serif" font-size="10.00">Cart / Order / Payment / Coupon / Shipment</text>
</g>
<g id="clust4" class="cluster">
<title>cluster_engagement</title>
<path fill="none" stroke="#bbbbbb" d="M1361,-684C1361,-684 1512,-684 1512,-684 1518,-684 1524,-690 1524,-696 1524,-696 1524,-847 1524,-847 1524,-853 1518,-859 1512,-859 1512,-859 1361,-859 1361,-859 1355,-859 1349,-853 1349,-847 1349,-847 1349,-696 1349,-696 1349,-690 1355,-684 1361,-684"/>
<text text-anchor="middle" x="1436.5" y="-847" font-family="Helvetica,sans-Serif" font-size="10.00">Review</text>
</g>
<!-- USERS -->
<g id="node1" class="node">
<title>USERS</title>
<polygon fill="#f7f7f7" stroke="transparent" points="17.5,-1019 17.5,-1042 108.5,-1042 108.5,-1019 17.5,-1019"/>
<text text-anchor="start" x="21.5" y="-1027.8" font-family="Helvetica,sans-Serif" font-weight="bold" font-size="14.00">USERS</text>
<text text-anchor="start" x="21.5" y="-1003.8" font-family="Courier,monospace" font-size="14.00">id [PK]</text>
<text text-anchor="start" x="21.5" y="-980.8" font-family="Courier,monospace" font-size="14.00">email</text>
<text text-anchor="start" x="21.5" y="-957.8" font-family="Courier,monospace" font-size="14.00">status</text>
<text text-anchor="start" x="21.5" y="-934.8" font-family="Courier,monospace" font-size="14.00">created_at</text>
<polygon fill="none" stroke="black" points="16,-926.5 16,-1043.5 109,-1043.5 109,-926.5 16,-926.5"/>
</g>
<!-- USER_ADDRESSES -->
<g id="node2" class="node">
<title>USER_ADDRESSES</title>
<polygon fill="#f7f7f7" stroke="transparent" points="182.5,-1019 182.5,-1042 331.5,-1042 331.5,-1019 182.5,-1019"/>
<text text-anchor="start" x="186.5" y="-1027.8" font-family="Helvetica,sans-Serif" font-weight="bold" font-size="14.00">USER_ADDRESSES</text>
<text text-anchor="start" x="186.5" y="-1003.8" font-family="Courier,monospace" font-size="14.00">id [PK]</text>
<text text-anchor="start" x="186.5" y="-980.8" font-family="Courier,monospace" font-size="14.00">user_id [FK]</text>
<text text-anchor="start" x="186.5" y="-957.8" font-family="Courier,monospace" font-size="14.00">recipient_name</text>
<text text-anchor="start" x="186.5" y="-934.8" font-family="Courier,monospace" font-size="14.00">is_default</text>
<polygon fill="none" stroke="black" points="181,-926.5 181,-1043.5 332,-1043.5 332,-926.5 181,-926.5"/>
</g>
<!-- USERS&#45;&gt;USER_ADDRESSES -->
<g id="edge6" class="edge">
<title>USERS&#45;&gt;USER_ADDRESSES</title>
<path fill="none" stroke="#666666" stroke-width="1.1" d="M109.46,-985C109.46,-985 173.84,-985 173.84,-985"/>
<polygon fill="#666666" stroke="#666666" stroke-width="1.1" points="173.84,-987.45 180.84,-985 173.84,-982.55 173.84,-987.45"/>
</g>
<!-- CATEGORIES -->
<g id="node3" class="node">
<title>CATEGORIES</title>
<polygon fill="#eef6ff" stroke="transparent" points="194.5,-847 194.5,-870 318.5,-870 318.5,-847 194.5,-847"/>
<text text-anchor="start" x="198.5" y="-855.8" font-family="Helvetica,sans-Serif" font-weight="bold" font-size="14.00">CATEGORIES</text>
<text text-anchor="start" x="198.5" y="-831.8" font-family="Courier,monospace" font-size="14.00">id [PK]</text>
<text text-anchor="start" x="198.5" y="-808.8" font-family="Courier,monospace" font-size="14.00">parent_id [FK]</text>
<text text-anchor="start" x="198.5" y="-785.8" font-family="Courier,monospace" font-size="14.00">name</text>
<text text-anchor="start" x="198.5" y="-762.8" font-family="Courier,monospace" font-size="14.00">slug</text>
<polygon fill="none" stroke="black" points="193.5,-754.5 193.5,-871.5 319.5,-871.5 319.5,-754.5 193.5,-754.5"/>
</g>
<!-- USERS&#45;&gt;CATEGORIES -->
<!-- CARTS -->
<g id="node7" class="node">
<title>CARTS</title>
<polygon fill="#eafbf3" stroke="transparent" points="650.5,-618 650.5,-641 758.5,-641 758.5,-618 650.5,-618"/>
<text text-anchor="start" x="654.5" y="-626.8" font-family="Helvetica,sans-Serif" font-weight="bold" font-size="14.00">CARTS</text>
<text text-anchor="start" x="654.5" y="-602.8" font-family="Courier,monospace" font-size="14.00">id [PK]</text>
<text text-anchor="start" x="654.5" y="-579.8" font-family="Courier,monospace" font-size="14.00">user_id [FK]</text>
<text text-anchor="start" x="654.5" y="-556.8" font-family="Courier,monospace" font-size="14.00">status</text>
<text text-anchor="start" x="654.5" y="-533.8" font-family="Courier,monospace" font-size="14.00">updated_at</text>
<polygon fill="none" stroke="black" points="649.5,-525.5 649.5,-642.5 759.5,-642.5 759.5,-525.5 649.5,-525.5"/>
</g>
<!-- USERS&#45;&gt;CARTS -->
<g id="edge7" class="edge">
<title>USERS&#45;&gt;CARTS</title>
<path fill="none" stroke="#666666" stroke-width="1.1" d="M63,-926.09C63,-810.36 63,-564.5 63,-564.5 63,-564.5 642.25,-564.5 642.25,-564.5"/>
<polygon fill="#666666" stroke="#666666" stroke-width="1.1" points="642.25,-566.95 649.25,-564.5 642.25,-562.05 642.25,-566.95"/>
</g>
<!-- ORDERS -->
<g id="node9" class="node">
<title>ORDERS</title>
<polygon fill="#eafbf3" stroke="transparent" points="883.5,-456 883.5,-479 1007.5,-479 1007.5,-456 883.5,-456"/>
<text text-anchor="start" x="887.5" y="-464.8" font-family="Helvetica,sans-Serif" font-weight="bold" font-size="14.00">ORDERS</text>
<text text-anchor="start" x="887.5" y="-440.8" font-family="Courier,monospace" font-size="14.00">id [PK]</text>
<text text-anchor="start" x="887.5" y="-417.8" font-family="Courier,monospace" font-size="14.00">user_id [FK]</text>
<text text-anchor="start" x="887.5" y="-394.8" font-family="Courier,monospace" font-size="14.00">order_number</text>
<text text-anchor="start" x="887.5" y="-371.8" font-family="Courier,monospace" font-size="14.00">status</text>
<text text-anchor="start" x="887.5" y="-348.8" font-family="Courier,monospace" font-size="14.00">payment_amount</text>
<polygon fill="none" stroke="black" points="882.5,-340 882.5,-480 1008.5,-480 1008.5,-340 882.5,-340"/>
</g>
<!-- USERS&#45;&gt;ORDERS -->
<g id="edge8" class="edge">
<title>USERS&#45;&gt;ORDERS</title>
<path fill="none" stroke="#666666" stroke-width="1.1" d="M47,-926.27C47,-775.51 47,-386.67 47,-386.67 47,-386.67 875.32,-386.67 875.32,-386.67"/>
<polygon fill="#666666" stroke="#666666" stroke-width="1.1" points="875.32,-389.12 882.32,-386.67 875.32,-384.22 875.32,-389.12"/>
</g>
<!-- USER_COUPONS -->
<g id="node13" class="node">
<title>USER_COUPONS</title>
<polygon fill="#eafbf3" stroke="transparent" points="1358.5,-132 1358.5,-155 1515.5,-155 1515.5,-132 1358.5,-132"/>
<text text-anchor="start" x="1362.5" y="-140.8" font-family="Helvetica,sans-Serif" font-weight="bold" font-size="14.00">USER_COUPONS</text>
<text text-anchor="start" x="1362.5" y="-116.8" font-family="Courier,monospace" font-size="14.00">id [PK]</text>
<text text-anchor="start" x="1362.5" y="-93.8" font-family="Courier,monospace" font-size="14.00">coupon_id [FK]</text>
<text text-anchor="start" x="1362.5" y="-70.8" font-family="Courier,monospace" font-size="14.00">user_id [FK]</text>
<text text-anchor="start" x="1362.5" y="-47.8" font-family="Courier,monospace" font-size="14.00">status</text>
<text text-anchor="start" x="1362.5" y="-24.8" font-family="Courier,monospace" font-size="14.00">used_order_id [FK]</text>
<polygon fill="none" stroke="black" points="1357,-16 1357,-156 1516,-156 1516,-16 1357,-16"/>
</g>
<!-- USERS&#45;&gt;USER_COUPONS -->
<g id="edge9" class="edge">
<title>USERS&#45;&gt;USER_COUPONS</title>
<path fill="none" stroke="#666666" stroke-width="1.1" d="M32,-926.25C32,-735.34 32,-144.75 32,-144.75 32,-144.75 1349.96,-144.75 1349.96,-144.75"/>
<polygon fill="#666666" stroke="#666666" stroke-width="1.1" points="1349.96,-147.2 1356.96,-144.75 1349.96,-142.3 1349.96,-147.2"/>
</g>
<!-- REVIEWS -->
<g id="node16" class="node">
<title>REVIEWS</title>
<polygon fill="#f8f2ea" stroke="transparent" points="1358.5,-808 1358.5,-831 1515.5,-831 1515.5,-808 1358.5,-808"/>
<text text-anchor="start" x="1362.5" y="-816.8" font-family="Helvetica,sans-Serif" font-weight="bold" font-size="14.00">REVIEWS</text>
<text text-anchor="start" x="1362.5" y="-792.8" font-family="Courier,monospace" font-size="14.00">id [PK]</text>
<text text-anchor="start" x="1362.5" y="-769.8" font-family="Courier,monospace" font-size="14.00">user_id [FK]</text>
<text text-anchor="start" x="1362.5" y="-746.8" font-family="Courier,monospace" font-size="14.00">product_id [FK]</text>
<text text-anchor="start" x="1362.5" y="-723.8" font-family="Courier,monospace" font-size="14.00">order_item_id [FK]</text>
<text text-anchor="start" x="1362.5" y="-700.8" font-family="Courier,monospace" font-size="14.00">rating</text>
<polygon fill="none" stroke="black" points="1357,-692 1357,-832 1516,-832 1516,-692 1357,-692"/>
</g>
<!-- USERS&#45;&gt;REVIEWS -->
<g id="edge10" class="edge">
<title>USERS&#45;&gt;REVIEWS</title>
<path fill="none" stroke="#666666" stroke-width="1.1" d="M78,-926.23C78,-849.81 78,-726 78,-726 78,-726 1349.59,-726 1349.59,-726"/>
<polygon fill="#666666" stroke="#666666" stroke-width="1.1" points="1349.59,-728.45 1356.59,-726 1349.59,-723.55 1349.59,-728.45"/>
</g>
<!-- PRODUCTS -->
<g id="node4" class="node">
<title>PRODUCTS</title>
<polygon fill="#eef6ff" stroke="transparent" points="405.5,-859 405.5,-882 546.5,-882 546.5,-859 405.5,-859"/>
<text text-anchor="start" x="409.5" y="-867.8" font-family="Helvetica,sans-Serif" font-weight="bold" font-size="14.00">PRODUCTS</text>
<text text-anchor="start" x="409.5" y="-843.8" font-family="Courier,monospace" font-size="14.00">id [PK]</text>
<text text-anchor="start" x="409.5" y="-820.8" font-family="Courier,monospace" font-size="14.00">category_id [FK]</text>
<text text-anchor="start" x="409.5" y="-797.8" font-family="Courier,monospace" font-size="14.00">name</text>
<text text-anchor="start" x="409.5" y="-774.8" font-family="Courier,monospace" font-size="14.00">status</text>
<text text-anchor="start" x="409.5" y="-751.8" font-family="Courier,monospace" font-size="14.00">sale_price</text>
<polygon fill="none" stroke="black" points="404,-743 404,-883 547,-883 547,-743 404,-743"/>
</g>
<!-- CATEGORIES&#45;&gt;PRODUCTS -->
<g id="edge11" class="edge">
<title>CATEGORIES&#45;&gt;PRODUCTS</title>
<path fill="none" stroke="#666666" stroke-width="1.1" d="M319.55,-813C319.55,-813 396.65,-813 396.65,-813"/>
<polygon fill="#666666" stroke="#666666" stroke-width="1.1" points="396.65,-815.45 403.65,-813 396.65,-810.55 396.65,-815.45"/>
</g>
<!-- CATEGORIES&#45;&gt;CARTS -->
<!-- PRODUCT_VARIANTS -->
<g id="node5" class="node">
<title>PRODUCT_VARIANTS</title>
<polygon fill="#eef6ff" stroke="transparent" points="620.5,-859 620.5,-882 789.5,-882 789.5,-859 620.5,-859"/>
<text text-anchor="start" x="624.5" y="-867.8" font-family="Helvetica,sans-Serif" font-weight="bold" font-size="14.00">PRODUCT_VARIANTS</text>
<text text-anchor="start" x="624.5" y="-843.8" font-family="Courier,monospace" font-size="14.00">id [PK]</text>
<text text-anchor="start" x="624.5" y="-820.8" font-family="Courier,monospace" font-size="14.00">product_id [FK]</text>
<text text-anchor="start" x="624.5" y="-797.8" font-family="Courier,monospace" font-size="14.00">sku</text>
<text text-anchor="start" x="624.5" y="-774.8" font-family="Courier,monospace" font-size="14.00">status</text>
<text text-anchor="start" x="624.5" y="-751.8" font-family="Courier,monospace" font-size="14.00">additional_price</text>
<polygon fill="none" stroke="black" points="619,-743 619,-883 790,-883 790,-743 619,-743"/>
</g>
<!-- PRODUCTS&#45;&gt;PRODUCT_VARIANTS -->
<g id="edge12" class="edge">
<title>PRODUCTS&#45;&gt;PRODUCT_VARIANTS</title>
<path fill="none" stroke="#666666" stroke-width="1.1" d="M547.02,-813C547.02,-813 611.66,-813 611.66,-813"/>
<polygon fill="#666666" stroke="#666666" stroke-width="1.1" points="611.66,-815.45 618.66,-813 611.66,-810.55 611.66,-815.45"/>
</g>
<!-- PRODUCTS&#45;&gt;REVIEWS -->
<g id="edge23" class="edge">
<title>PRODUCTS&#45;&gt;REVIEWS</title>
<path fill="none" stroke="#666666" stroke-width="1.1" d="M476,-742.9C476,-737.74 476,-734.5 476,-734.5 476,-734.5 1349.67,-734.5 1349.67,-734.5"/>
<polygon fill="#666666" stroke="#666666" stroke-width="1.1" points="1349.67,-736.95 1356.67,-734.5 1349.67,-732.05 1349.67,-736.95"/>
</g>
<!-- INVENTORIES -->
<g id="node6" class="node">
<title>INVENTORIES</title>
<polygon fill="#eef6ff" stroke="transparent" points="867.5,-859 867.5,-882 1024.5,-882 1024.5,-859 867.5,-859"/>
<text text-anchor="start" x="871.5" y="-867.8" font-family="Helvetica,sans-Serif" font-weight="bold" font-size="14.00">INVENTORIES</text>
<text text-anchor="start" x="871.5" y="-843.8" font-family="Courier,monospace" font-size="14.00">id [PK]</text>
<text text-anchor="start" x="871.5" y="-820.8" font-family="Courier,monospace" font-size="14.00">variant_id [FK]</text>
<text text-anchor="start" x="871.5" y="-797.8" font-family="Courier,monospace" font-size="14.00">available_quantity</text>
<text text-anchor="start" x="871.5" y="-774.8" font-family="Courier,monospace" font-size="14.00">reserved_quantity</text>
<text text-anchor="start" x="871.5" y="-751.8" font-family="Courier,monospace" font-size="14.00">version</text>
<polygon fill="none" stroke="black" points="866,-743 866,-883 1025,-883 1025,-743 866,-743"/>
</g>
<!-- PRODUCT_VARIANTS&#45;&gt;INVENTORIES -->
<g id="edge13" class="edge">
<title>PRODUCT_VARIANTS&#45;&gt;INVENTORIES</title>
<path fill="none" stroke="#666666" stroke-width="1.1" d="M790.15,-813C790.15,-813 858.77,-813 858.77,-813"/>
<polygon fill="#666666" stroke="#666666" stroke-width="1.1" points="858.77,-815.45 865.77,-813 858.77,-810.55 858.77,-815.45"/>
</g>
<!-- CART_ITEMS -->
<g id="node8" class="node">
<title>CART_ITEMS</title>
<polygon fill="#eafbf3" stroke="transparent" points="863.5,-625 863.5,-648 1028.5,-648 1028.5,-625 863.5,-625"/>
<text text-anchor="start" x="867.5" y="-633.8" font-family="Helvetica,sans-Serif" font-weight="bold" font-size="14.00">CART_ITEMS</text>
<text text-anchor="start" x="867.5" y="-609.8" font-family="Courier,monospace" font-size="14.00">id [PK]</text>
<text text-anchor="start" x="867.5" y="-586.8" font-family="Courier,monospace" font-size="14.00">cart_id [FK]</text>
<text text-anchor="start" x="867.5" y="-563.8" font-family="Courier,monospace" font-size="14.00">variant_id [FK]</text>
<text text-anchor="start" x="867.5" y="-540.8" font-family="Courier,monospace" font-size="14.00">quantity</text>
<text text-anchor="start" x="867.5" y="-517.8" font-family="Courier,monospace" font-size="14.00">unit_price_snapshot</text>
<polygon fill="none" stroke="black" points="862,-509 862,-649 1029,-649 1029,-509 862,-509"/>
</g>
<!-- PRODUCT_VARIANTS&#45;&gt;CART_ITEMS -->
<g id="edge15" class="edge">
<title>PRODUCT_VARIANTS&#45;&gt;CART_ITEMS</title>
<path fill="none" stroke="#666666" stroke-width="1.1" d="M780,-742.95C780,-682.05 780,-603.5 780,-603.5 780,-603.5 854.78,-603.5 854.78,-603.5"/>
<polygon fill="#666666" stroke="#666666" stroke-width="1.1" points="854.78,-605.95 861.78,-603.5 854.78,-601.05 854.78,-605.95"/>
</g>
<!-- ORDER_ITEMS -->
<g id="node10" class="node">
<title>ORDER_ITEMS</title>
<polygon fill="#eafbf3" stroke="transparent" points="1102,-625 1102,-648 1284,-648 1284,-625 1102,-625"/>
<text text-anchor="start" x="1106" y="-633.8" font-family="Helvetica,sans-Serif" font-weight="bold" font-size="14.00">ORDER_ITEMS</text>
<text text-anchor="start" x="1106" y="-609.8" font-family="Courier,monospace" font-size="14.00">id [PK]</text>
<text text-anchor="start" x="1106" y="-586.8" font-family="Courier,monospace" font-size="14.00">order_id [FK]</text>
<text text-anchor="start" x="1106" y="-563.8" font-family="Courier,monospace" font-size="14.00">variant_id [FK]</text>
<text text-anchor="start" x="1106" y="-540.8" font-family="Courier,monospace" font-size="14.00">product_name_snapshot</text>
<text text-anchor="start" x="1106" y="-517.8" font-family="Courier,monospace" font-size="14.00">quantity</text>
<polygon fill="none" stroke="black" points="1101,-509 1101,-649 1285,-649 1285,-509 1101,-509"/>
</g>
<!-- PRODUCT_VARIANTS&#45;&gt;ORDER_ITEMS -->
<g id="edge17" class="edge">
<title>PRODUCT_VARIANTS&#45;&gt;ORDER_ITEMS</title>
<path fill="none" stroke="#666666" stroke-width="1.1" d="M770,-742.77C770,-724.09 770,-709 770,-709 770,-709 1163,-709 1163,-709 1163,-709 1163,-656.33 1163,-656.33"/>
<polygon fill="#666666" stroke="#666666" stroke-width="1.1" points="1165.45,-656.33 1163,-649.33 1160.55,-656.33 1165.45,-656.33"/>
</g>
<!-- CARTS&#45;&gt;CART_ITEMS -->
<g id="edge14" class="edge">
<title>CARTS&#45;&gt;CART_ITEMS</title>
<path fill="none" stroke="#666666" stroke-width="1.1" d="M759.79,-564.5C759.79,-564.5 854.62,-564.5 854.62,-564.5"/>
<polygon fill="#666666" stroke="#666666" stroke-width="1.1" points="854.62,-566.95 861.62,-564.5 854.62,-562.05 854.62,-566.95"/>
</g>
<!-- CARTS&#45;&gt;ORDERS -->
<!-- ORDERS&#45;&gt;ORDER_ITEMS -->
<g id="edge16" class="edge">
<title>ORDERS&#45;&gt;ORDER_ITEMS</title>
<path fill="none" stroke="#666666" stroke-width="1.1" d="M1008.72,-464.5C1056.54,-464.5 1114,-464.5 1114,-464.5 1114,-464.5 1114,-501.77 1114,-501.77"/>
<polygon fill="#666666" stroke="#666666" stroke-width="1.1" points="1111.55,-501.77 1114,-508.77 1116.45,-501.77 1111.55,-501.77"/>
</g>
<!-- PAYMENTS -->
<g id="node11" class="node">
<title>PAYMENTS</title>
<polygon fill="#eafbf3" stroke="transparent" points="1135,-425 1135,-448 1251,-448 1251,-425 1135,-425"/>
<text text-anchor="start" x="1139" y="-433.8" font-family="Helvetica,sans-Serif" font-weight="bold" font-size="14.00">PAYMENTS</text>
<text text-anchor="start" x="1139" y="-409.8" font-family="Courier,monospace" font-size="14.00">id [PK]</text>
<text text-anchor="start" x="1139" y="-386.8" font-family="Courier,monospace" font-size="14.00">order_id [FK]</text>
<text text-anchor="start" x="1139" y="-363.8" font-family="Courier,monospace" font-size="14.00">status</text>
<text text-anchor="start" x="1139" y="-340.8" font-family="Courier,monospace" font-size="14.00">provider</text>
<text text-anchor="start" x="1139" y="-317.8" font-family="Courier,monospace" font-size="14.00">payment_key</text>
<polygon fill="none" stroke="black" points="1134,-309 1134,-449 1252,-449 1252,-309 1134,-309"/>
</g>
<!-- ORDERS&#45;&gt;PAYMENTS -->
<g id="edge18" class="edge">
<title>ORDERS&#45;&gt;PAYMENTS</title>
<path fill="none" stroke="#666666" stroke-width="1.1" d="M1008.6,-412.67C1008.6,-412.67 1126.85,-412.67 1126.85,-412.67"/>
<polygon fill="#666666" stroke="#666666" stroke-width="1.1" points="1126.85,-415.12 1133.85,-412.67 1126.85,-410.22 1126.85,-415.12"/>
</g>
<!-- COUPONS -->
<g id="node12" class="node">
<title>COUPONS</title>
<polygon fill="#eafbf3" stroke="transparent" points="1131,-109 1131,-132 1255,-132 1255,-109 1131,-109"/>
<text text-anchor="start" x="1135" y="-117.8" font-family="Helvetica,sans-Serif" font-weight="bold" font-size="14.00">COUPONS</text>
<text text-anchor="start" x="1135" y="-93.8" font-family="Courier,monospace" font-size="14.00">id [PK]</text>
<text text-anchor="start" x="1135" y="-70.8" font-family="Courier,monospace" font-size="14.00">code</text>
<text text-anchor="start" x="1135" y="-47.8" font-family="Courier,monospace" font-size="14.00">coupon_type</text>
<text text-anchor="start" x="1135" y="-24.8" font-family="Courier,monospace" font-size="14.00">discount_value</text>
<polygon fill="none" stroke="black" points="1130,-16.5 1130,-133.5 1256,-133.5 1256,-16.5 1130,-16.5"/>
</g>
<!-- ORDERS&#45;&gt;COUPONS -->
<!-- ORDER_COUPON_USAGES -->
<g id="node14" class="node">
<title>ORDER_COUPON_USAGES</title>
<polygon fill="#eafbf3" stroke="transparent" points="1589.5,-316 1589.5,-339 1796.5,-339 1796.5,-316 1589.5,-316"/>
<text text-anchor="start" x="1593.5" y="-324.8" font-family="Helvetica,sans-Serif" font-weight="bold" font-size="14.00">ORDER_COUPON_USAGES</text>
<text text-anchor="start" x="1593.5" y="-300.8" font-family="Courier,monospace" font-size="14.00">id [PK]</text>
<text text-anchor="start" x="1593.5" y="-277.8" font-family="Courier,monospace" font-size="14.00">order_id [FK]</text>
<text text-anchor="start" x="1593.5" y="-254.8" font-family="Courier,monospace" font-size="14.00">user_coupon_id [FK]</text>
<text text-anchor="start" x="1593.5" y="-231.8" font-family="Courier,monospace" font-size="14.00">discount_amount</text>
<polygon fill="none" stroke="black" points="1588,-223.5 1588,-340.5 1797,-340.5 1797,-223.5 1588,-223.5"/>
</g>
<!-- ORDERS&#45;&gt;ORDER_COUPON_USAGES -->
<g id="edge20" class="edge">
<title>ORDERS&#45;&gt;ORDER_COUPON_USAGES</title>
<path fill="none" stroke="#666666" stroke-width="1.1" d="M967,-340C967,-315.62 967,-294.25 967,-294.25 967,-294.25 1580.78,-294.25 1580.78,-294.25"/>
<polygon fill="#666666" stroke="#666666" stroke-width="1.1" points="1580.78,-296.7 1587.78,-294.25 1580.78,-291.8 1580.78,-296.7"/>
</g>
<!-- SHIPMENTS -->
<g id="node15" class="node">
<title>SHIPMENTS</title>
<polygon fill="#eafbf3" stroke="transparent" points="1127,-255 1127,-278 1259,-278 1259,-255 1127,-255"/>
<text text-anchor="start" x="1131" y="-263.8" font-family="Helvetica,sans-Serif" font-weight="bold" font-size="14.00">SHIPMENTS</text>
<text text-anchor="start" x="1131" y="-239.8" font-family="Courier,monospace" font-size="14.00">id [PK]</text>
<text text-anchor="start" x="1131" y="-216.8" font-family="Courier,monospace" font-size="14.00">order_id [FK]</text>
<text text-anchor="start" x="1131" y="-193.8" font-family="Courier,monospace" font-size="14.00">status</text>
<text text-anchor="start" x="1131" y="-170.8" font-family="Courier,monospace" font-size="14.00">tracking_number</text>
<polygon fill="none" stroke="black" points="1126,-162.5 1126,-279.5 1260,-279.5 1260,-162.5 1126,-162.5"/>
</g>
<!-- ORDERS&#45;&gt;SHIPMENTS -->
<g id="edge22" class="edge">
<title>ORDERS&#45;&gt;SHIPMENTS</title>
<path fill="none" stroke="#666666" stroke-width="1.1" d="M1008.74,-376.33C1062.15,-376.33 1130,-376.33 1130,-376.33 1130,-376.33 1130,-286.72 1130,-286.72"/>
<polygon fill="#666666" stroke="#666666" stroke-width="1.1" points="1132.45,-286.72 1130,-279.72 1127.55,-286.72 1132.45,-286.72"/>
</g>
<!-- ORDER_ITEMS&#45;&gt;REVIEWS -->
<g id="edge24" class="edge">
<title>ORDER_ITEMS&#45;&gt;REVIEWS</title>
<path fill="none" stroke="#666666" stroke-width="1.1" d="M1224,-649.06C1224,-683.41 1224,-717.5 1224,-717.5 1224,-717.5 1349.77,-717.5 1349.77,-717.5"/>
<polygon fill="#666666" stroke="#666666" stroke-width="1.1" points="1349.77,-719.95 1356.77,-717.5 1349.77,-715.05 1349.77,-719.95"/>
</g>
<!-- COUPONS&#45;&gt;USER_COUPONS -->
<g id="edge19" class="edge">
<title>COUPONS&#45;&gt;USER_COUPONS</title>
<path fill="none" stroke="#666666" stroke-width="1.1" d="M1256.02,-55.5C1256.02,-55.5 1349.7,-55.5 1349.7,-55.5"/>
<polygon fill="#666666" stroke="#666666" stroke-width="1.1" points="1349.7,-57.95 1356.7,-55.5 1349.7,-53.05 1349.7,-57.95"/>
</g>
<!-- COUPONS&#45;&gt;REVIEWS -->
<!-- USER_COUPONS&#45;&gt;ORDER_COUPON_USAGES -->
<g id="edge21" class="edge">
<title>USER_COUPONS&#45;&gt;ORDER_COUPON_USAGES</title>
<path fill="none" stroke="#666666" stroke-width="1.1" d="M1437,-156.19C1437,-201.29 1437,-251.5 1437,-251.5 1437,-251.5 1580.84,-251.5 1580.84,-251.5"/>
<polygon fill="#666666" stroke="#666666" stroke-width="1.1" points="1580.84,-253.95 1587.84,-251.5 1580.84,-249.05 1580.84,-253.95"/>
</g>
</g>
</svg>
